<svg width="1379" height="1127" xmlns="http://www.w3.org/2000/svg" xmlns:xlink="http://www.w3.org/1999/xlink" xml:space="preserve" overflow="hidden"><defs><clipPath id="clip0"><rect x="1511" y="580" width="1379" height="1127"/></clipPath></defs><g clip-path="url(#clip0)" transform="translate(-1511 -580)"><path d="M1511 659C1511 615.369 1546.37 580 1590 580L2810 580C2853.63 580 2889 615.369 2889 659L2889 659C2889 702.63 2853.63 738 2810 738L1590 738C1546.37 738 1511 702.63 1511 659Z" fill="#004665" fill-rule="evenodd"/><path d="M1511 1143.5C1511 1099.59 1546.59 1064 1590.5 1064L2809.5 1064C2853.41 1064 2889 1099.59 2889 1143.5L2889 1143.5C2889 1187.41 2853.41 1223 2809.5 1223L1590.5 1223C1546.59 1223 1511 1187.41 1511 1143.5Z" fill="#004665" fill-rule="evenodd"/><path d="M1511 1628C1511 1584.37 1546.37 1549 1590 1549L2810 1549C2853.63 1549 2889 1584.37 2889 1628L2889 1628C2889 1671.63 2853.63 1707 2810 1707L1590 1707C1546.37 1707 1511 1671.63 1511 1628Z" fill="#004665" fill-rule="evenodd"/></g></svg>