<svg width="1887" height="1022" xmlns="http://www.w3.org/2000/svg" xmlns:xlink="http://www.w3.org/1999/xlink" xml:space="preserve" overflow="hidden"><g transform="translate(-1096 -660)"><path d="M2959.46 683.87C2990.33 714.746 2990.33 764.806 2959.46 795.682L2096.56 1658.57C2065.69 1689.45 2015.63 1689.45 1984.75 1658.57L1984.75 1658.57C1953.88 1627.7 1953.88 1577.64 1984.75 1546.76L2847.65 683.871C2878.52 652.995 2928.58 652.995 2959.46 683.871Z" fill="#004665" fill-rule="evenodd"/><path d="M1119.23 683.871C1150.1 652.995 1200.16 652.994 1231.04 683.87L2093.93 1546.76C2124.81 1577.64 2124.81 1627.7 2093.93 1658.57L2093.93 1658.57C2063.05 1689.45 2012.99 1689.45 1982.12 1658.57L1119.23 795.682C1088.35 764.806 1088.35 714.746 1119.23 683.87Z" fill="#004665" fill-rule="evenodd"/></g></svg>