<svg width="1859" height="1065" xmlns="http://www.w3.org/2000/svg" xmlns:xlink="http://www.w3.org/1999/xlink" xml:space="preserve" overflow="hidden"><g transform="translate(-1106 -606)"><path d="M2923.49 647.908C2974.23 698.645 2974.23 780.908 2923.49 831.645L2132.53 1622.61C2081.79 1673.35 1999.53 1673.35 1948.79 1622.61L1948.79 1622.61C1898.05 1571.87 1898.05 1489.61 1948.79 1438.87L2739.76 647.909C2790.49 597.171 2872.76 597.171 2923.49 647.909Z" stroke="#004665" stroke-width="6.875" stroke-miterlimit="8" fill="#004665" fill-rule="evenodd"/><path d="M1148.36 654.733C1199.1 603.995 1281.36 603.995 1332.1 654.733L2123.07 1445.7C2173.81 1496.44 2173.81 1578.7 2123.07 1629.44L2123.07 1629.44C2072.33 1680.17 1990.07 1680.17 1939.33 1629.44L1148.37 838.469C1097.63 787.731 1097.63 705.469 1148.37 654.732Z" stroke="#004665" stroke-width="6.875" stroke-miterlimit="8" fill="#004665" fill-rule="evenodd"/></g></svg>